<?xml version="1.0" encoding="UTF-8" standalone="no"?>
<!-- Generator: Adobe Illustrator 15.1.0, SVG Export Plug-In . SVG Version: 6.00 Build 0)  -->

<svg
   version="1.1"
   id="Layer_1"
   x="0px"
   y="0px"
   width="70.984245"
   height="75.627396"
   viewBox="0 0 70.984244 75.627393"
   enable-background="new 0 0 42.068 56.712"
   xml:space="preserve"
   sodipodi:docname="Logo_DMT.svg"
   inkscape:version="1.1.2 (76b9e6a115, 2022-02-25)"
   xmlns:inkscape="http://www.inkscape.org/namespaces/inkscape"
   xmlns:sodipodi="http://sodipodi.sourceforge.net/DTD/sodipodi-0.dtd"
   xmlns="http://www.w3.org/2000/svg"
   xmlns:svg="http://www.w3.org/2000/svg"><defs
   id="defs886" /><sodipodi:namedview
   id="namedview884"
   pagecolor="#ffffff"
   bordercolor="#666666"
   borderopacity="1.0"
   inkscape:pageshadow="2"
   inkscape:pageopacity="0.0"
   inkscape:pagecheckerboard="0"
   showgrid="false"
   inkscape:zoom="3.557448"
   inkscape:cx="-11.946766"
   inkscape:cy="35.278098"
   inkscape:window-width="1848"
   inkscape:window-height="1016"
   inkscape:window-x="1992"
   inkscape:window-y="27"
   inkscape:window-maximized="1"
   inkscape:current-layer="Layer_1" />





<ellipse
   style="fill:#ffffff;stroke:none;stroke-width:0.455169;stroke-opacity:1;fill-opacity:1"
   id="path990"
   cx="35.492123"
   cy="37.813698"
   rx="35.264538"
   ry="37.586113" /><g
   id="g1122"
   transform="translate(14.458173,7.4572769)"><path
     fill-rule="evenodd"
     clip-rule="evenodd"
     fill="#e5352b"
     d="m 17.347,0 c 2.141,0 4.28,0 6.42,0 -4.645,8.234 -9.436,16.324 -14.1,24.54 4.82,0 9.641,0 14.459,0 1.203,1.778 2.234,3.726 3.301,5.641 -9.14,0 -18.28,0 -27.42,0 -0.054,-0.332 0.213,-0.646 0.36,-0.9 C 4.482,22.17 8.675,14.839 12.847,7.62 14.329,5.056 15.856,2.496 17.347,0 Z"
     id="path871" /><path
     fill-rule="evenodd"
     clip-rule="evenodd"
     fill="#e5352b"
     d="m 24.546,0 c 5.951,9.949 11.637,20.164 17.521,30.18 -1.141,1.84 -2.098,3.862 -3.361,5.579 -4.658,-8.2 -9.398,-16.32 -14.1,-24.479 -2.465,4.174 -4.836,8.443 -7.32,12.6 -2.12,0 -4.24,0 -6.36,0 -0.113,-0.274 0.197,-0.479 0.301,-0.66 C 15.579,15.57 20.161,7.698 24.546,0 Z"
     id="path873" /><path
     fill-rule="evenodd"
     clip-rule="evenodd"
     fill="#e5352b"
     d="m 38.347,36.54 c -11.58,0 -23.161,0 -34.741,0 -1.178,-1.741 -2.334,-3.825 -3.239,-5.64 9.399,0 18.8,0 28.201,0 -2.227,-4.134 -4.828,-8.413 -7.201,-12.6 0.973,-1.968 2.186,-3.694 3.18,-5.64 4.704,7.855 9.267,15.853 13.8,23.88 z"
     id="path875" /><path
     fill-rule="evenodd"
     clip-rule="evenodd"
     d="m 1.207,41.4 c 3.829,0.083 7.538,-0.435 9.72,1.02 1.82,1.214 2.75,3.637 2.76,6.601 0.016,4.442 -2.124,7.288 -6.18,7.619 -1.83,0.15 -3.99,0.014 -6.359,0.061 0,-5.04 0,-10.08 0,-15.12 C 1.142,41.495 1.138,41.41 1.207,41.4 Z m 2.04,1.859 c 0,3.9 0,7.801 0,11.7 2.948,0.035 5.369,0.277 6.84,-1.26 1.994,-2.084 1.991,-7.474 -0.119,-9.48 -1.621,-1.539 -3.75,-1.067 -6.66,-1.14 -0.071,0.01 -0.066,0.095 -0.061,0.18 z"
     id="path877" /><path
     fill-rule="evenodd"
     clip-rule="evenodd"
     d="m 14.947,41.4 c 0.86,0 1.72,0 2.579,0 1.539,4.261 3.153,8.448 4.68,12.72 1.744,-4.097 3.186,-8.494 4.801,-12.72 0.879,0 1.76,0 2.641,0 0,5.1 0,10.2 0,15.3 -0.641,0 -1.281,0 -1.922,0 0,-4.22 0,-8.44 0,-12.66 -1.586,4.173 -3.115,8.404 -4.619,12.66 -0.561,0 -1.119,0 -1.68,0 -1.488,-4.232 -3.074,-8.366 -4.56,-12.6 -0.14,4.079 -0.021,8.42 -0.06,12.6 -0.641,0 -1.281,0 -1.92,0 0.04,-5.08 -0.079,-10.321 0.06,-15.3 z"
     id="path879" /><path
     fill-rule="evenodd"
     clip-rule="evenodd"
     d="m 30.847,41.4 c 3.74,0 7.48,0 11.221,0 0,0.56 0,1.12 0,1.68 -1.541,0 -3.08,0 -4.621,0 0,4.54 0,9.08 0,13.62 -0.68,0 -1.359,0 -2.039,0 0,-4.521 0,-9.04 0,-13.56 -1.42,-0.141 -3.102,-0.021 -4.621,-0.061 0.039,-0.539 -0.08,-1.239 0.06,-1.679 z"
     id="path881" /></g>
</svg>
