<?xml version="1.0" encoding="utf-8"?>
<!-- Generator: Adobe Illustrator 15.1.0, SVG Export Plug-In . SVG Version: 6.00 Build 0)  -->
<!DOCTYPE svg PUBLIC "-//W3C//DTD SVG 1.1//EN" "http://www.w3.org/Graphics/SVG/1.1/DTD/svg11.dtd">
<svg version="1.1" id="Layer_1" xmlns="http://www.w3.org/2000/svg" xmlns:xlink="http://www.w3.org/1999/xlink" x="0px" y="0px"
	 width="42.068px" height="56.712px" viewBox="0 0 42.068 56.712" enable-background="new 0 0 42.068 56.712" xml:space="preserve">
<path fill-rule="evenodd" clip-rule="evenodd" fill="#E5352B" d="M17.347,0c2.141,0,4.28,0,6.42,0
	c-4.645,8.234-9.436,16.324-14.1,24.54c4.82,0,9.641,0,14.459,0c1.203,1.778,2.234,3.726,3.301,5.641c-9.14,0-18.28,0-27.42,0
	c-0.054-0.332,0.213-0.646,0.36-0.9C4.482,22.17,8.675,14.839,12.847,7.62C14.329,5.056,15.856,2.496,17.347,0z"/>
<path fill-rule="evenodd" clip-rule="evenodd" fill="#E5352B" d="M24.546,0c5.951,9.949,11.637,20.164,17.521,30.18
	c-1.141,1.84-2.098,3.862-3.361,5.579c-4.658-8.2-9.398-16.32-14.1-24.479c-2.465,4.174-4.836,8.443-7.32,12.6
	c-2.12,0-4.24,0-6.36,0c-0.113-0.274,0.197-0.479,0.301-0.66C15.579,15.57,20.161,7.698,24.546,0z"/>
<path fill-rule="evenodd" clip-rule="evenodd" fill="#E5352B" d="M38.347,36.54c-11.58,0-23.161,0-34.741,0
	c-1.178-1.741-2.334-3.825-3.239-5.64c9.399,0,18.8,0,28.201,0c-2.227-4.134-4.828-8.413-7.201-12.6
	c0.973-1.968,2.186-3.694,3.18-5.64C29.251,20.515,33.814,28.513,38.347,36.54z"/>
<path fill-rule="evenodd" clip-rule="evenodd" d="M1.207,41.4c3.829,0.083,7.538-0.435,9.72,1.02c1.82,1.214,2.75,3.637,2.76,6.601
	c0.016,4.442-2.124,7.288-6.18,7.619c-1.83,0.15-3.99,0.014-6.359,0.061c0-5.04,0-10.08,0-15.12
	C1.142,41.495,1.138,41.41,1.207,41.4z M3.247,43.259c0,3.9,0,7.801,0,11.7c2.948,0.035,5.369,0.277,6.84-1.26
	c1.994-2.084,1.991-7.474-0.119-9.48c-1.621-1.539-3.75-1.067-6.66-1.14C3.237,43.089,3.242,43.174,3.247,43.259z"/>
<path fill-rule="evenodd" clip-rule="evenodd" d="M14.947,41.4c0.86,0,1.72,0,2.579,0c1.539,4.261,3.153,8.448,4.68,12.72
	c1.744-4.097,3.186-8.494,4.801-12.72c0.879,0,1.76,0,2.641,0c0,5.1,0,10.2,0,15.3c-0.641,0-1.281,0-1.922,0c0-4.22,0-8.44,0-12.66
	c-1.586,4.173-3.115,8.404-4.619,12.66c-0.561,0-1.119,0-1.68,0c-1.488-4.232-3.074-8.366-4.56-12.6
	c-0.14,4.079-0.021,8.42-0.06,12.6c-0.641,0-1.281,0-1.92,0C14.927,51.62,14.808,46.379,14.947,41.4z"/>
<path fill-rule="evenodd" clip-rule="evenodd" d="M30.847,41.4c3.74,0,7.48,0,11.221,0c0,0.56,0,1.12,0,1.68
	c-1.541,0-3.08,0-4.621,0c0,4.54,0,9.08,0,13.62c-0.68,0-1.359,0-2.039,0c0-4.521,0-9.04,0-13.56
	c-1.42-0.141-3.102-0.021-4.621-0.061C30.826,42.54,30.707,41.84,30.847,41.4z"/>
</svg>
